<svg width="120" height="32" viewBox="0 0 120 32" fill="none" xmlns="http://www.w3.org/2000/svg">
  <rect x="0.5" y="0.5" width="31" height="31" rx="9" fill="#FFF5F5" stroke="#F97373"/>
  <path d="M10 22V10.2H15.1C17.3 10.2 18.7 11.4 18.7 13.3C18.7 14.6 17.9 15.6 16.8 15.9C18 16.2 18.9 17.2 18.9 18.7C18.9 20.7 17.4 22 15.1 22H10ZM12.4 14.9H15C15.9 14.9 16.5 14.4 16.5 13.5C16.5 12.6 15.9 12.1 15 12.1H12.4V14.9ZM12.4 20.1H15.1C16.1 20.1 16.8 19.5 16.8 18.5C16.8 17.5 16.1 16.9 15.1 16.9H12.4V20.1Z" fill="#C90603"/>
  <text x="40" y="20" font-family="system-ui, -apple-system, BlinkMacSystemFont, 'SF Pro Text', 'Segoe UI', sans-serif" font-size="13" fill="#111827">El Rincón</text>
  <text x="40" y="28" font-family="system-ui, -apple-system, BlinkMacSystemFont, 'SF Pro Text', 'Segoe UI', sans-serif" font-size="11" fill="#6B7280">de Beita</text>
</svg>
